Coordinates
version=1
nRows=6
nColumns=46
inDegrees=yes

Units are S.I. units (second, meters, Newtons, ...)
Angles are in degrees.

endheader
time	pelvis_tilt	pelvis_list	pelvis_rotation	pelvis_tx	pelvis_ty	pelvis_tz	bb_angle	bb_tx	bb_ty	bb_tz	hip_flexion_r	hip_adduction_r	hip_rotation_r	knee_angle_r	knee_angle_r_beta	ankle_angle_r	subtalar_angle_r	mtp_angle_r	crank_angle_r	hip_flexion_l	hip_adduction_l	hip_rotation_l	knee_angle_l	knee_angle_l_beta	ankle_angle_l	subtalar_angle_l	mtp_angle_l	crank_angle_l	lumbar_extension	lumbar_bending	lumbar_rotation	arm_flex_r	arm_add_r	arm_rot_r	elbow_flex_r	pro_sup_r	wrist_flex_r	wrist_dev_r	arm_flex_l	arm_add_l	arm_rot_l	elbow_flex_l	pro_sup_l	wrist_flex_l	wrist_dev_l
      7.50000000	    -11.72353374	      6.13783726	     13.58531999	      0.06999080	      1.16504356	     -0.24141592	      0.00000000	      0.50000000	      0.00000000	      0.25000000	     50.16461359	    -13.97443622	      3.69621793	     77.88352312	      1.35932391	    -16.48648558	    -11.59855063	      0.00000000	      0.00000000	     68.45618932	     11.40839507	      2.43383416	     72.73382939	      1.26944480	     12.23866087	     -9.17798412	      0.00000000	      0.00000000	    -66.12157530	      4.02678175	    -10.25038753	     88.94669924	    -16.22210812	     30.98549342	     54.04051196	     41.19882031	      0.00000000	      0.00000000	     89.80651729	    -14.11275764	     37.45401404	     61.38261208	     24.10426086	      0.00000000	      0.00000000
      7.50500000	    -11.65911075	      5.73222696	     13.38253645	      0.07019825	      1.16368091	     -0.24316937	      0.00000000	      0.50000000	      0.00000000	      0.25000000	     51.75039182	    -13.79512593	      3.94318311	     80.33640630	      1.40213480	    -17.58249156	    -11.02771031	      0.00000000	      0.00000000	     66.33891631	     11.19461074	      2.94572341	     69.65929472	      1.21578405	     13.34347987	     -9.35411858	      0.00000000	      0.00000000	    -65.98311293	      4.39101391	     -9.94402308	     88.98310289	    -16.09549498	     31.16099385	     54.21768484	     41.24378747	      0.00000000	      0.00000000	     89.79919386	    -14.40818255	     37.52459199	     61.36041615	     24.15564873	      0.00000000	      0.00000000
      7.51000000	    -11.55802842	      4.93394554	     13.12061385	      0.07053092	      1.16220319	     -0.24477280	      0.00000000	      0.50000000	      0.00000000	      0.25000000	     53.22312519	    -13.20231782	      3.90294166	     82.59360057	      1.44153027	    -18.62176707	    -10.51633967	      0.00000000	      0.00000000	     64.37302948	     10.62717448	      3.69893425	     66.76393271	      1.16525045	     14.23710894	     -9.60082936	      0.00000000	      0.00000000	    -65.77378421	      4.95051134	     -9.24007563	     89.07744246	    -15.92435179	     31.30276995	     54.27160551	     41.26624556	      0.00000000	      0.00000000	     89.78681193	    -14.71250390	     37.52428021	     61.30907136	     24.18870250	      0.00000000	      0.00000000
      7.51500000	    -11.39308610	      4.21321841	     12.84120663	      0.07096564	      1.16080260	     -0.24640253	      0.00000000	      0.50000000	      0.00000000	      0.25000000	     54.66234738	    -12.69581498	      3.89467078	     84.78017638	      1.47969322	    -19.84457281	     -9.91963758	      0.00000000	      0.00000000	     62.52248737	     10.01729629	      4.33523741	     64.15473898	      1.11971143	     14.86594618	     -9.64255773	      0.00000000	      0.00000000	    -65.63174227	      5.45457207	     -8.57836641	     89.11762832	    -15.76771280	     31.52412551	     54.30482218	     41.29113186	      0.00000000	      0.00000000	     89.77879106	    -15.02713281	     37.66434386	     61.17473011	     24.22685778	      0.00000000	      0.00000000
      7.52000000	    -11.17479864	      3.49394902	     12.54660491	      0.07144514	      1.15943731	     -0.24802918	      0.00000000	      0.50000000	      0.00000000	      0.25000000	     56.04416948	    -12.13388570	      3.95493247	     86.91713041	      1.51699010	    -20.91072181	     -9.45327027	      0.00000000	      0.00000000	     60.75664116	      9.38473052	      4.92812467	     61.82484356	      1.07904708	     15.15939671	     -9.52750702	      0.00000000	      0.00000000	    -65.50909656	      5.98222354	     -7.85994597	     89.15308993	    -15.60775471	     31.74760297	     54.30313277	     41.31038255	      0.00000000	      0.00000000	     89.76618836	    -15.34346123	     37.77329213	     61.03061371	     24.25375545	      0.00000000	      0.00000000
      7.52500000	    -10.87096220	      3.06712080	     12.10998741	      0.07222893	      1.15875797	     -0.24943670	      0.00000000	      0.50000000	      0.00000000	      0.25000000	     57.36253660	    -11.73726294	      4.15894306	     88.81512467	      1.55011635	    -22.80340028	     -9.08653363	      0.00000000	      0.00000000	     58.77804347	      8.76561292	      5.24568749	     59.38906647	      1.03653475	     15.39990288	     -9.28251481	      0.00000000	      0.00000000	    -65.38387706	      6.17449894	     -7.45223967	     89.23378467	    -15.70707620	     33.25221764	     53.86032274	     41.30160279	      0.00000000	      0.00000000	     89.77038106	    -16.00245226	     39.33211379	     60.26876123	     24.33908658	      0.00000000	      0.00000000
